<svg xmlns="http://www.w3.org/2000/svg" width="64" height="64"><path fill="#656D78" d="M49.01 33.48h-.02c-5.971 0-11.07 3.74-13.09 9-.49 1.25-.79 2.6-.891 4a13.953 13.953 0 0 0 .28 4c.229 1.049.57 2.07 1.02 3.02.521 1.08 1.16 2.08 1.931 2.99a13.985 13.985 0 0 0 10.75 5.029c7.74 0 14.02-6.279 14.02-14.02 0-7.729-6.27-14.009-14-14.019z"/><path fill="#E6E9ED" d="M45 46.02h8v3h-8zM31.99 6.48v2.5c0 .83-.67 1.5-1.5 1.5s-1.5-.67-1.5-1.5v-5c0-.83.67-1.5 1.5-1.5s1.5.67 1.5 1.5v2.5zm11 0v2.5c0 .83-.67 1.5-1.5 1.5s-1.5-.67-1.5-1.5v-5c0-.83.67-1.5 1.5-1.5s1.5.67 1.5 1.5v2.5z"/><path fill="#ED5565" d="M48.99 8.48v6h-48v-6c0-1.111.899-2 2-2h4v2.5c0 .83.67 1.5 1.5 1.5s1.5-.67 1.5-1.5v-2.5h8v2.5c0 .83.67 1.5 1.5 1.5s1.5-.67 1.5-1.5v-2.5h8v2.5c0 .83.67 1.5 1.5 1.5s1.5-.67 1.5-1.5v-2.5h8v2.5c0 .83.67 1.5 1.5 1.5s1.5-.67 1.5-1.5v-2.5h4c1.11 0 2 .889 2 2z"/><path fill="#CCD1D9" d="M36.31 53.5H.99v-3.02h34.3c.23 1.049.57 2.071 1.02 3.02z"/><path fill="#ED5565" d="M57 47.52v3a2 2 0 1 1-4 0v-6a2 2 0 1 1 4 0v3z"/><path fill="#E6E9ED" d="M36.01 38.48v-4h-4v4h4zm12.98-5c-5.971 0-11.07 3.74-13.09 9h-3.89v4h3a13.953 13.953 0 0 0 .28 4H.99v-36h48l.02 19h-.02zm-4-3v-4h-4v4h4zm0-8v-4h-4v4h4zm-9 8v-4h-4v4h4zm0-8v-4h-4v4h4zm-9 24v-4h-4v4h4zm0-8v-4h-4v4h4zm0-8v-4h-4v4h4zm0-8v-4h-4v4h4zm-9 24v-4h-4v4h4zm0-8v-4h-4v4h4zm0-8v-4h-4v4h4zm0-8v-4h-4v4h4zm-9 24v-4h-4v4h4zm0-8v-4h-4v4h4zm0-8v-4h-4v4h4zm0-8v-4h-4v4h4z"/><path fill="#CCD1D9" d="m38.23 56.5-37.24.01V53.5h35.32c.521 1.08 1.16 2.08 1.931 2.99l-.011.01z"/><path fill="#E6E9ED" d="M9.99 6.48v2.5c0 .83-.67 1.5-1.5 1.5s-1.5-.67-1.5-1.5v-5c0-.83.67-1.5 1.5-1.5s1.5.67 1.5 1.5v2.5z"/><path fill="#FFF" d="M32.01 34.48h4v4h-4zM40.99 18.48h4v4h-4zM31.99 26.48h4v4h-4zM22.99 42.48h4v4h-4zM32.01 42.48h3.89c-.49 1.25-.79 2.6-.891 4h-3v-4zM31.99 18.48h4v4h-4zM40.99 26.48h4v4h-4zM13.99 34.48h4v4h-4zM13.99 18.48h4v4h-4zM13.99 26.48h4v4h-4zM4.99 18.48h4v4h-4zM22.99 34.48h4v4h-4zM4.99 42.48h4v4h-4zM22.99 26.48h4v4h-4zM4.99 34.48h4v4h-4zM13.99 42.48h4v4h-4zM22.99 18.48h4v4h-4zM4.99 26.48h4v4h-4z"/><path fill="#E6E9ED" d="M20.99 6.48v2.5c0 .83-.67 1.5-1.5 1.5s-1.5-.67-1.5-1.5v-5c0-.83.67-1.5 1.5-1.5s1.5.67 1.5 1.5v2.5z"/><path fill="#ED5565" d="M45 49.02v1.5a2 2 0 1 1-4 0v-6a2 2 0 1 1 4 0v4.5z"/><path d="M.991 9.48a1 1 0 0 1-1-1c0-1.654 1.346-3 3-3a1 1 0 1 1 0 2 1 1 0 0 0-1 1 1 1 0 0 1-1 1zm48 0a1 1 0 0 1-1-1 1 1 0 0 0-1-1 1 1 0 1 1 0-2c1.654 0 3 1.346 3 3a1 1 0 0 1-1 1zm0 6h-48a1 1 0 1 1 0-2h48a1 1 0 1 1 0 2z"/><path d="M49.009 34.484a1 1 0 0 1-1-.999l-.018-25.004a1 1 0 0 1 .999-1.001h.001a1 1 0 0 1 1 .999l.018 25.004a1 1 0 0 1-1 1.001zM.991 57.514a1 1 0 0 1-1-1V8.48a1 1 0 1 1 2 0v48.033a1 1 0 0 1-1 1.001z"/><path d="M35.292 51.48H.991a1 1 0 1 1 0-2h34.301a1 1 0 1 1 0 2zM.991 54.498a1 1 0 1 1 0-2l35.319-.002a1 1 0 1 1 0 2l-35.319.002zm0 3.016a1 1 0 1 1 0-2l37.236-.018a1 1 0 1 1 0 2l-37.236.018zm7.5-46.034a2.502 2.502 0 0 1-2.5-2.5v-5c0-1.379 1.121-2.5 2.5-2.5s2.5 1.121 2.5 2.5v5c0 1.379-1.121 2.5-2.5 2.5zm0-8c-.275 0-.5.225-.5.5v5c0 .275.225.5.5.5s.5-.225.5-.5v-5a.5.5 0 0 0-.5-.5zm11 8a2.502 2.502 0 0 1-2.5-2.5v-5c0-1.379 1.121-2.5 2.5-2.5s2.5 1.121 2.5 2.5v5c0 1.379-1.121 2.5-2.5 2.5zm0-8c-.275 0-.5.225-.5.5v5c0 .275.225.5.5.5s.5-.225.5-.5v-5a.5.5 0 0 0-.5-.5zm11 8a2.502 2.502 0 0 1-2.5-2.5v-5c0-1.379 1.121-2.5 2.5-2.5s2.5 1.121 2.5 2.5v5c0 1.379-1.121 2.5-2.5 2.5zm0-8c-.275 0-.5.225-.5.5v5c0 .275.225.5.5.5s.5-.225.5-.5v-5a.5.5 0 0 0-.5-.5zm11 8a2.502 2.502 0 0 1-2.5-2.5v-5c0-1.379 1.121-2.5 2.5-2.5s2.5 1.121 2.5 2.5v5c0 1.379-1.121 2.5-2.5 2.5zm0-8c-.275 0-.5.225-.5.5v5c0 .275.225.5.5.5s.5-.225.5-.5v-5a.5.5 0 0 0-.5-.5z"/><path d="M6.991 7.48h-4a1 1 0 1 1 0-2h4a1 1 0 1 1 0 2zm11 0h-8a1 1 0 1 1 0-2h8a1 1 0 1 1 0 2zm11 0h-8a1 1 0 1 1 0-2h8a1 1 0 1 1 0 2zm11 0h-8a1 1 0 1 1 0-2h8a1 1 0 1 1 0 2zm7 0h-4a1 1 0 1 1 0-2h4a1 1 0 1 1 0 2zm-38 16h-4a1 1 0 0 1-1-1v-4a1 1 0 0 1 1-1h4a1 1 0 0 1 1 1v4a1 1 0 0 1-1 1zm-3-2h2v-2h-2v2zm12 2h-4a1 1 0 0 1-1-1v-4a1 1 0 0 1 1-1h4a1 1 0 0 1 1 1v4a1 1 0 0 1-1 1zm-3-2h2v-2h-2v2zm12 2h-4a1 1 0 0 1-1-1v-4a1 1 0 0 1 1-1h4a1 1 0 0 1 1 1v4a1 1 0 0 1-1 1zm-3-2h2v-2h-2v2zm12 2h-4a1 1 0 0 1-1-1v-4a1 1 0 0 1 1-1h4a1 1 0 0 1 1 1v4a1 1 0 0 1-1 1zm-3-2h2v-2h-2v2zm-24 10h-4a1 1 0 0 1-1-1v-4a1 1 0 0 1 1-1h4a1 1 0 0 1 1 1v4a1 1 0 0 1-1 1zm-3-2h2v-2h-2v2zm12 2h-4a1 1 0 0 1-1-1v-4a1 1 0 0 1 1-1h4a1 1 0 0 1 1 1v4a1 1 0 0 1-1 1zm-3-2h2v-2h-2v2zm12 2h-4a1 1 0 0 1-1-1v-4a1 1 0 0 1 1-1h4a1 1 0 0 1 1 1v4a1 1 0 0 1-1 1zm-3-2h2v-2h-2v2zm-15 10h-4a1 1 0 0 1-1-1v-4a1 1 0 0 1 1-1h4a1 1 0 0 1 1 1v4a1 1 0 0 1-1 1zm-3-2h2v-2h-2v2zm12 2h-4a1 1 0 0 1-1-1v-4a1 1 0 0 1 1-1h4a1 1 0 0 1 1 1v4a1 1 0 0 1-1 1zm-3-2h2v-2h-2v2zm12 2h-4a1 1 0 0 1-1-1v-4a1 1 0 0 1 1-1h4a1 1 0 0 1 1 1v4a1 1 0 0 1-1 1zm-3-2h2v-2h-2v2zm12.018 2h-4a1 1 0 0 1-1-1v-4a1 1 0 0 1 1-1h4a1 1 0 0 1 1 1v4a1 1 0 0 1-1 1zm-3-2h2v-2h-2v2zm1.999 10h-2.999a1 1 0 0 1-1-1v-4a1 1 0 0 1 1-1H35.9a1 1 0 1 1 0 2h-2.891v2h1.999a1 1 0 1 1 0 2zm-26.017 0h-4a1 1 0 0 1-1-1v-4a1 1 0 0 1 1-1h4a1 1 0 0 1 1 1v4a1 1 0 0 1-1 1zm-3-2h2v-2h-2v2zm12 2h-4a1 1 0 0 1-1-1v-4a1 1 0 0 1 1-1h4a1 1 0 0 1 1 1v4a1 1 0 0 1-1 1zm-3-2h2v-2h-2v2zm12 2h-4a1 1 0 0 1-1-1v-4a1 1 0 0 1 1-1h4a1 1 0 0 1 1 1v4a1 1 0 0 1-1 1zm-3-2h2v-2h-2v2zm12-14h-4a1 1 0 0 1-1-1v-4a1 1 0 0 1 1-1h4a1 1 0 0 1 1 1v4a1 1 0 0 1-1 1zm-3-2h2v-2h-2v2zm12 2h-4a1 1 0 0 1-1-1v-4a1 1 0 0 1 1-1h4a1 1 0 0 1 1 1v4a1 1 0 0 1-1 1zm-3-2h2v-2h-2v2zM44.991 23.48h-4a1 1 0 0 1-1-1v-4a1 1 0 0 1 1-1h4a1 1 0 0 1 1 1v4a1 1 0 0 1-1 1zm-3-2h2v-2h-2v2z"/><path d="M48.991 62.52c-8.28 0-15.018-6.737-15.018-15.018s6.737-15.018 15.018-15.018 15.018 6.737 15.018 15.018S57.271 62.52 48.991 62.52zm0-28.036c-7.178 0-13.018 5.84-13.018 13.018s5.84 13.018 13.018 13.018 13.018-5.84 13.018-13.018-5.84-13.018-13.018-13.018z"/><path d="M44.998 45.521a1 1 0 0 1-1-1 1 1 0 0 0-2 0 1 1 0 1 1-2 0c0-1.654 1.346-3 3-3s3 1.346 3 3a1 1 0 0 1-1 1zm-2 7.998c-1.654 0-3-1.346-3-3a1 1 0 1 1 2 0 1 1 0 0 0 2 0 1 1 0 1 1 2 0c0 1.654-1.346 3-3 3z"/><path d="M40.998 51.519a1 1 0 0 1-1-1v-5.998a1 1 0 1 1 2 0v5.998a1 1 0 0 1-1 1zm4 0a1 1 0 0 1-1-1v-5.998a1 1 0 1 1 2 0v5.998a1 1 0 0 1-1 1zm11.999-5.998a1 1 0 0 1-1-1 1 1 0 0 0-2 0 1 1 0 1 1-2 0c0-1.654 1.346-3 3-3s3 1.346 3 3a1 1 0 0 1-1 1zm-2 7.998c-1.654 0-3-1.346-3-3a1 1 0 1 1 2 0 1 1 0 0 0 2 0 1 1 0 1 1 2 0c0 1.654-1.346 3-3 3z"/><path d="M52.997 51.519a1 1 0 0 1-1-1v-5.998a1 1 0 1 1 2 0v5.998a1 1 0 0 1-1 1zm4 0a1 1 0 0 1-1-1v-5.998a1 1 0 1 1 2 0v5.998a1 1 0 0 1-1 1z"/><path d="M52.997 47.019h-7.999a1 1 0 1 1 0-2h7.999a1 1 0 1 1 0 2zm0 3h-7.999a1 1 0 1 1 0-2h7.999a1 1 0 1 1 0 2zm5-1.5h-1a1 1 0 1 1 0-2h1a1 1 0 1 1 0 2zm-16.999 0h-1a1 1 0 1 1 0-2h1a1 1 0 1 1 0 2z"/></svg>