<svg xmlns="http://www.w3.org/2000/svg" width="64" height="64" enable-background="new 0 0 64 64" viewBox="0 0 64 64" id="gym-schedule">
  <path fill="#656D78" d="M49.01,33.48c-0.01,0-0.01,0-0.02,0c-5.971,0-11.07,3.74-13.09,9c-0.49,1.25-0.79,2.6-0.891,4
			c-0.029,0.33-0.04,0.68-0.04,1.02c0,1.02,0.11,2.02,0.32,2.98c0.229,1.049,0.57,2.07,1.02,3.02c0.521,1.08,1.16,2.08,1.931,2.99
			c2.569,3.07,6.43,5.029,10.75,5.029c7.74,0,14.02-6.279,14.02-14.02C63.01,39.77,56.74,33.49,49.01,33.48z"></path>
  <rect width="8" height="3" x="45" y="46.02" fill="#E6E9ED"></rect>
  <path fill="#E6E9ED" d="M31.99 6.48v2.5c0 .83-.67 1.5-1.5 1.5s-1.5-.67-1.5-1.5v-2.5-2.5c0-.83.67-1.5 1.5-1.5s1.5.67 1.5 1.5V6.48zM42.99 6.48v2.5c0 .83-.67 1.5-1.5 1.5s-1.5-.67-1.5-1.5v-2.5-2.5c0-.83.67-1.5 1.5-1.5s1.5.67 1.5 1.5V6.48z"></path>
  <path fill="#ED5565" d="M48.99,8.48v6h-48v-6c0-1.111,0.899-2,2-2h4v2.5c0,0.83,0.67,1.5,1.5,1.5s1.5-0.67,1.5-1.5v-2.5h8v2.5
			c0,0.83,0.67,1.5,1.5,1.5s1.5-0.67,1.5-1.5v-2.5h8v2.5c0,0.83,0.67,1.5,1.5,1.5s1.5-0.67,1.5-1.5v-2.5h8v2.5
			c0,0.83,0.67,1.5,1.5,1.5s1.5-0.67,1.5-1.5v-2.5h4C48.1,6.48,48.99,7.369,48.99,8.48z"></path>
  <path fill="#CCD1D9" d="M36.31,53.5H0.99v-3.02h34.3C35.52,51.529,35.86,52.551,36.31,53.5z"></path>
  <path fill="#ED5565" d="M57,47.52v3c0,1.1-0.9,2-2,2c-1.11,0-2-0.9-2-2v-1.5v-3v-1.5c0-1.1,0.89-2,2-2c1.1,0,2,0.9,2,2V47.52z"></path>
  <path fill="#E6E9ED" d="M36.01,38.48v-4h-4v4H36.01z M48.99,33.48c-5.971,0-11.07,3.74-13.09,9H32.01v4h3
			c-0.029,0.33-0.04,0.68-0.04,1.02c0,1.02,0.11,2.02,0.32,2.98H0.99v-36h48l0.02,19C49,33.48,49,33.48,48.99,33.48z M44.99,30.48
			v-4h-4v4H44.99z M44.99,22.48v-4h-4v4H44.99z M35.99,30.48v-4h-4v4H35.99z M35.99,22.48v-4h-4v4H35.99z M26.99,46.48v-4h-4v4
			H26.99z M26.99,38.48v-4h-4v4H26.99z M26.99,30.48v-4h-4v4H26.99z M26.99,22.48v-4h-4v4H26.99z M17.99,46.48v-4h-4v4H17.99z
			 M17.99,38.48v-4h-4v4H17.99z M17.99,30.48v-4h-4v4H17.99z M17.99,22.48v-4h-4v4H17.99z M8.99,46.48v-4h-4v4H8.99z M8.99,38.48v-4
			h-4v4H8.99z M8.99,30.48v-4h-4v4H8.99z M8.99,22.48v-4h-4v4H8.99z"></path>
  <path fill="#CCD1D9" d="M38.23,56.5L0.99,56.51V53.5H36.31c0.521,1.08,1.16,2.08,1.931,2.99L38.23,56.5z"></path>
  <path fill="#E6E9ED" d="M9.99,6.48v2.5c0,0.83-0.67,1.5-1.5,1.5s-1.5-0.67-1.5-1.5v-2.5v-2.5c0-0.83,0.67-1.5,1.5-1.5
			s1.5,0.67,1.5,1.5V6.48z"></path>
  <rect width="4" height="4" x="32.01" y="34.48" fill="#FFF"></rect>
  <rect width="4" height="4" x="40.99" y="18.48" fill="#FFF"></rect>
  <rect width="4" height="4" x="31.99" y="26.48" fill="#FFF"></rect>
  <rect width="4" height="4" x="22.99" y="42.48" fill="#FFF"></rect>
  <path fill="#FFF" d="M32.01,42.48H35.9c-0.49,1.25-0.79,2.6-0.891,4h-3V42.48z"></path>
  <rect width="4" height="4" x="31.99" y="18.48" fill="#FFF"></rect>
  <rect width="4" height="4" x="40.99" y="26.48" fill="#FFF"></rect>
  <rect width="4" height="4" x="13.99" y="34.48" fill="#FFF"></rect>
  <rect width="4" height="4" x="13.99" y="18.48" fill="#FFF"></rect>
  <rect width="4" height="4" x="13.99" y="26.48" fill="#FFF"></rect>
  <rect width="4" height="4" x="4.99" y="18.48" fill="#FFF"></rect>
  <rect width="4" height="4" x="22.99" y="34.48" fill="#FFF"></rect>
  <rect width="4" height="4" x="4.99" y="42.48" fill="#FFF"></rect>
  <rect width="4" height="4" x="22.99" y="26.48" fill="#FFF"></rect>
  <rect width="4" height="4" x="4.99" y="34.48" fill="#FFF"></rect>
  <rect width="4" height="4" x="13.99" y="42.48" fill="#FFF"></rect>
  <rect width="4" height="4" x="22.99" y="18.48" fill="#FFF"></rect>
  <rect width="4" height="4" x="4.99" y="26.48" fill="#FFF"></rect>
  <g>
    <path fill="#E6E9ED" d="M20.99,6.48v2.5c0,0.83-0.67,1.5-1.5,1.5s-1.5-0.67-1.5-1.5v-2.5v-2.5c0-0.83,0.67-1.5,1.5-1.5
			s1.5,0.67,1.5,1.5V6.48z"></path>
  </g>
  <g>
    <path fill="#ED5565" d="M45,49.02v1.5c0,1.1-0.9,2-2,2c-1.11,0-2-0.9-2-2v-3v-3c0-1.1,0.89-2,2-2c1.1,0,2,0.9,2,2v1.5V49.02z"></path>
  </g>
  <g>
    <path d="M.991 9.48c-.553 0-1-.447-1-1 0-1.654 1.346-3 3-3 .553 0 1 .447 1 1s-.447 1-1 1c-.552 0-1 .448-1 1C1.991 9.033 1.544 9.48.991 9.48zM48.991 9.48c-.553 0-1-.447-1-1 0-.552-.448-1-1-1-.553 0-1-.447-1-1s.447-1 1-1c1.654 0 3 1.346 3 3C49.991 9.033 49.544 9.48 48.991 9.48zM48.991 15.48h-48c-.553 0-1-.447-1-1s.447-1 1-1h48c.553 0 1 .447 1 1S49.544 15.48 48.991 15.48z"></path>
    <path d="M49.009 34.484c-.552 0-1-.447-1-.999L47.991 8.481c0-.553.447-1.001.999-1.001.001 0 .001 0 .001 0 .552 0 1 .447 1 .999l.018 25.004C50.009 34.036 49.562 34.484 49.009 34.484 49.009 34.484 49.009 34.484 49.009 34.484zM.991 57.514c-.553 0-1-.447-1-1V8.48c0-.553.447-1 1-1s1 .447 1 1v48.033C1.991 57.066 1.544 57.514.991 57.514z"></path>
    <path d="M35.292 51.48H.991c-.553 0-1-.447-1-1s.447-1 1-1h34.301c.553 0 1 .447 1 1S35.845 51.48 35.292 51.48zM.991 54.498c-.552 0-1-.447-1-1 0-.552.447-1 1-1l35.319-.002c.552 0 1 .447 1 1 0 .552-.447 1-1 1L.991 54.498zM.991 57.514c-.552 0-1-.447-1-1 0-.552.447-1 1-1l37.236-.018 0 0c.552 0 1 .447 1 1 0 .552-.447 1-1 1L.991 57.514.991 57.514zM8.491 11.48c-1.379 0-2.5-1.121-2.5-2.5v-5c0-1.379 1.121-2.5 2.5-2.5s2.5 1.121 2.5 2.5v5C10.991 10.359 9.87 11.48 8.491 11.48zM8.491 3.48c-.275 0-.5.225-.5.5v5c0 .275.225.5.5.5s.5-.225.5-.5v-5C8.991 3.705 8.767 3.48 8.491 3.48zM19.491 11.48c-1.379 0-2.5-1.121-2.5-2.5v-5c0-1.379 1.121-2.5 2.5-2.5s2.5 1.121 2.5 2.5v5C21.991 10.359 20.87 11.48 19.491 11.48zM19.491 3.48c-.275 0-.5.225-.5.5v5c0 .275.225.5.5.5s.5-.225.5-.5v-5C19.991 3.705 19.767 3.48 19.491 3.48zM30.491 11.48c-1.379 0-2.5-1.121-2.5-2.5v-5c0-1.379 1.121-2.5 2.5-2.5s2.5 1.121 2.5 2.5v5C32.991 10.359 31.87 11.48 30.491 11.48zM30.491 3.48c-.275 0-.5.225-.5.5v5c0 .275.225.5.5.5s.5-.225.5-.5v-5C30.991 3.705 30.767 3.48 30.491 3.48zM41.491 11.48c-1.379 0-2.5-1.121-2.5-2.5v-5c0-1.379 1.121-2.5 2.5-2.5s2.5 1.121 2.5 2.5v5C43.991 10.359 42.87 11.48 41.491 11.48zM41.491 3.48c-.275 0-.5.225-.5.5v5c0 .275.225.5.5.5s.5-.225.5-.5v-5C41.991 3.705 41.767 3.48 41.491 3.48z"></path>
    <path d="M6.991 7.48h-4c-.553 0-1-.447-1-1s.447-1 1-1h4c.553 0 1 .447 1 1S7.544 7.48 6.991 7.48zM17.991 7.48h-8c-.553 0-1-.447-1-1s.447-1 1-1h8c.553 0 1 .447 1 1S18.544 7.48 17.991 7.48zM28.991 7.48h-8c-.553 0-1-.447-1-1s.447-1 1-1h8c.553 0 1 .447 1 1S29.544 7.48 28.991 7.48zM39.991 7.48h-8c-.553 0-1-.447-1-1s.447-1 1-1h8c.553 0 1 .447 1 1S40.544 7.48 39.991 7.48zM46.991 7.48h-4c-.553 0-1-.447-1-1s.447-1 1-1h4c.553 0 1 .447 1 1S47.544 7.48 46.991 7.48zM8.991 23.48h-4c-.553 0-1-.447-1-1v-4c0-.553.447-1 1-1h4c.553 0 1 .447 1 1v4C9.991 23.033 9.544 23.48 8.991 23.48zM5.991 21.48h2v-2h-2V21.48zM17.991 23.48h-4c-.553 0-1-.447-1-1v-4c0-.553.447-1 1-1h4c.553 0 1 .447 1 1v4C18.991 23.033 18.544 23.48 17.991 23.48zM14.991 21.48h2v-2h-2V21.48zM26.991 23.48h-4c-.553 0-1-.447-1-1v-4c0-.553.447-1 1-1h4c.553 0 1 .447 1 1v4C27.991 23.033 27.544 23.48 26.991 23.48zM23.991 21.48h2v-2h-2V21.48zM35.991 23.48h-4c-.553 0-1-.447-1-1v-4c0-.553.447-1 1-1h4c.553 0 1 .447 1 1v4C36.991 23.033 36.544 23.48 35.991 23.48zM32.991 21.48h2v-2h-2V21.48zM8.991 31.48h-4c-.553 0-1-.447-1-1v-4c0-.553.447-1 1-1h4c.553 0 1 .447 1 1v4C9.991 31.033 9.544 31.48 8.991 31.48zM5.991 29.48h2v-2h-2V29.48zM17.991 31.48h-4c-.553 0-1-.447-1-1v-4c0-.553.447-1 1-1h4c.553 0 1 .447 1 1v4C18.991 31.033 18.544 31.48 17.991 31.48zM14.991 29.48h2v-2h-2V29.48zM26.991 31.48h-4c-.553 0-1-.447-1-1v-4c0-.553.447-1 1-1h4c.553 0 1 .447 1 1v4C27.991 31.033 27.544 31.48 26.991 31.48zM23.991 29.48h2v-2h-2V29.48zM8.991 39.48h-4c-.553 0-1-.447-1-1v-4c0-.553.447-1 1-1h4c.553 0 1 .447 1 1v4C9.991 39.033 9.544 39.48 8.991 39.48zM5.991 37.48h2v-2h-2V37.48zM17.991 39.48h-4c-.553 0-1-.447-1-1v-4c0-.553.447-1 1-1h4c.553 0 1 .447 1 1v4C18.991 39.033 18.544 39.48 17.991 39.48zM14.991 37.48h2v-2h-2V37.48zM26.991 39.48h-4c-.553 0-1-.447-1-1v-4c0-.553.447-1 1-1h4c.553 0 1 .447 1 1v4C27.991 39.033 27.544 39.48 26.991 39.48zM23.991 37.48h2v-2h-2V37.48zM36.009 39.48h-4c-.553 0-1-.447-1-1v-4c0-.553.447-1 1-1h4c.553 0 1 .447 1 1v4C37.009 39.033 36.562 39.48 36.009 39.48zM33.009 37.48h2v-2h-2V37.48zM35.008 47.48h-2.999c-.553 0-1-.447-1-1v-4c0-.553.447-1 1-1h3.891c.553 0 1 .447 1 1s-.447 1-1 1h-2.891v2h1.999c.553 0 1 .447 1 1S35.561 47.48 35.008 47.48zM8.991 47.48h-4c-.553 0-1-.447-1-1v-4c0-.553.447-1 1-1h4c.553 0 1 .447 1 1v4C9.991 47.033 9.544 47.48 8.991 47.48zM5.991 45.48h2v-2h-2V45.48zM17.991 47.48h-4c-.553 0-1-.447-1-1v-4c0-.553.447-1 1-1h4c.553 0 1 .447 1 1v4C18.991 47.033 18.544 47.48 17.991 47.48zM14.991 45.48h2v-2h-2V45.48zM26.991 47.48h-4c-.553 0-1-.447-1-1v-4c0-.553.447-1 1-1h4c.553 0 1 .447 1 1v4C27.991 47.033 27.544 47.48 26.991 47.48zM23.991 45.48h2v-2h-2V45.48zM35.991 31.48h-4c-.553 0-1-.447-1-1v-4c0-.553.447-1 1-1h4c.553 0 1 .447 1 1v4C36.991 31.033 36.544 31.48 35.991 31.48zM32.991 29.48h2v-2h-2V29.48zM44.991 31.48h-4c-.553 0-1-.447-1-1v-4c0-.553.447-1 1-1h4c.553 0 1 .447 1 1v4C45.991 31.033 45.544 31.48 44.991 31.48zM41.991 29.48h2v-2h-2V29.48z"></path>
    <g>
      <path d="M44.991,23.48h-4c-0.553,0-1-0.447-1-1v-4c0-0.553,0.447-1,1-1h4c0.553,0,1,0.447,1,1v4
			C45.991,23.033,45.544,23.48,44.991,23.48z M41.991,21.48h2v-2h-2V21.48z"></path>
    </g>
    <g>
      <path d="M48.991,62.52c-8.28,0-15.018-6.737-15.018-15.018s6.737-15.018,15.018-15.018s15.018,6.737,15.018,15.018
			S57.271,62.52,48.991,62.52z M48.991,34.484c-7.178,0-13.018,5.84-13.018,13.018s5.84,13.018,13.018,13.018
			s13.018-5.84,13.018-13.018S56.169,34.484,48.991,34.484z"></path>
    </g>
    <g>
      <path d="M44.998 45.521c-.553 0-1-.447-1-1 0-.552-.448-1-1-1s-1 .448-1 1c0 .553-.447 1-1 1s-1-.447-1-1c0-1.654 1.346-3 3-3s3 1.346 3 3C45.998 45.073 45.551 45.521 44.998 45.521zM42.998 53.519c-1.654 0-3-1.346-3-3 0-.553.447-1 1-1s1 .447 1 1c0 .552.448 1 1 1s1-.448 1-1c0-.553.447-1 1-1s1 .447 1 1C45.998 52.173 44.652 53.519 42.998 53.519z"></path>
      <path d="M40.998 51.519c-.553 0-1-.447-1-1v-5.998c0-.553.447-1 1-1s1 .447 1 1v5.998C41.998 51.071 41.551 51.519 40.998 51.519zM44.998 51.519c-.553 0-1-.447-1-1v-5.998c0-.553.447-1 1-1s1 .447 1 1v5.998C45.998 51.071 45.551 51.519 44.998 51.519zM56.997 45.521c-.553 0-1-.447-1-1 0-.552-.448-1-1-1s-1 .448-1 1c0 .553-.447 1-1 1s-1-.447-1-1c0-1.654 1.346-3 3-3s3 1.346 3 3C57.997 45.073 57.55 45.521 56.997 45.521zM54.997 53.519c-1.654 0-3-1.346-3-3 0-.553.447-1 1-1s1 .447 1 1c0 .552.448 1 1 1s1-.448 1-1c0-.553.447-1 1-1s1 .447 1 1C57.997 52.173 56.651 53.519 54.997 53.519z"></path>
      <path d="M52.997 51.519c-.553 0-1-.447-1-1v-5.998c0-.553.447-1 1-1s1 .447 1 1v5.998C53.997 51.071 53.55 51.519 52.997 51.519zM56.997 51.519c-.553 0-1-.447-1-1v-5.998c0-.553.447-1 1-1s1 .447 1 1v5.998C57.997 51.071 57.55 51.519 56.997 51.519z"></path>
      <path d="M52.997 47.019h-7.999c-.553 0-1-.447-1-1s.447-1 1-1h7.999c.553 0 1 .447 1 1S53.55 47.019 52.997 47.019zM52.997 50.019h-7.999c-.553 0-1-.447-1-1s.447-1 1-1h7.999c.553 0 1 .447 1 1S53.55 50.019 52.997 50.019zM57.997 48.519h-1c-.553 0-1-.447-1-1s.447-1 1-1h1c.553 0 1 .447 1 1S58.55 48.519 57.997 48.519zM40.998 48.519h-1c-.553 0-1-.447-1-1s.447-1 1-1h1c.553 0 1 .447 1 1S41.551 48.519 40.998 48.519z"></path>
    </g>
  </g>
</svg>
