<svg xmlns="http://www.w3.org/2000/svg" width="32" height="32" id="office">
  <path d="M12.5 1A6.497 6.497 0 0 0 6 7.5c0 3.592 2.908 6.5 6.5 6.5S19 11.092 19 7.5 16.092 1 12.5 1Zm-5 15h10c.957 0 1.849.246 2.629.67A7 7 0 0 0 17 22.5c0 2.949 1.834 5.47 4.42 6.5H2v-7.5C2 18.444 4.444 16 7.5 16Zm16.5.5c3.32 0 6 2.68 6 6s-2.68 6-6 6-6-2.68-6-6 2.68-6 6-6zm0 1c-2.756 0-5 2.244-5 5s2.244 5 5 5 5-2.244 5-5-2.244-5-5-5zm0 1c2.215 0 4 1.785 4 4s-1.785 4-4 4-4-1.785-4-4 1.785-4 4-4zm2.49 2.068a.492.492 0 0 0-.345.145l-3.213 3.094-1.077-1.037c-.48-.469-1.18.258-.693.72l1.424 1.371a.5.5 0 0 0 .693 0l3.559-3.43a.5.5 0 0 0-.348-.863z" color="#000" font-family="sans-serif" font-weight="400" overflow="visible" style="line-height:normal;text-indent:0;text-align:start;text-decoration-line:none;text-decoration-style:solid;text-decoration-color:#000;text-transform:none;block-progression:tb;isolation:auto;mix-blend-mode:normal"></path>
</svg>
