<svg xmlns="http://www.w3.org/2000/svg" viewBox="0 0 512 512" id="search">
  <g>
    <g>
      <path fill="#ed664c" d="M225.43,48.48A176.95,176.95,0,1,1,48.48,225.43,176.952,176.952,0,0,1,225.43,48.48ZM335.37,230.1V213.39a18.426,18.426,0,0,0-18.42-18.43H305.22v-8.71a18.428,18.428,0,0,0-18.43-18.43H267.77V206.8H168.26V167.82H149.24a18.428,18.428,0,0,0-18.43,18.43v8.71H119.08a18.428,18.428,0,0,0-18.43,18.43V230.1a18.428,18.428,0,0,0,18.43,18.43h11.73v11.73a18.426,18.426,0,0,0,18.43,18.42h19.02V239.71h99.51v38.98h19.02a18.435,18.435,0,0,0,18.43-18.43V248.53h11.73A18.426,18.426,0,0,0,335.37,230.1Z"></path>
      <path fill="#fdc75b" d="M335.37,213.39V230.1a18.426,18.426,0,0,1-18.42,18.43H305.22V194.96h11.73A18.426,18.426,0,0,1,335.37,213.39Z"></path>
      <path fill="#fdc75b" d="M305.22,248.53v11.73a18.435,18.435,0,0,1-18.43,18.43H267.77V167.82h19.02a18.428,18.428,0,0,1,18.43,18.43v62.28Z"></path>
      <polygon fill="#fdc75b" points="267.77 206.8 267.77 239.71 267.55 239.71 168.26 239.71 168.26 206.8 266.99 206.8 267.77 206.8"></polygon>
      <path fill="#fdc75b" d="M168.26,239.71v38.97H149.24a18.426,18.426,0,0,1-18.43-18.42V186.25a18.428,18.428,0,0,1,18.43-18.43h19.02v71.89Z"></path>
      <path fill="#fdc75b" d="M130.81,194.96v53.57H119.08a18.428,18.428,0,0,1-18.43-18.43V213.39a18.428,18.428,0,0,1,18.43-18.43Z"></path>
    </g>
    <g>
      <path d="M364.438,350.3A186.2,186.2,0,0,0,412.38,225.43c0-103.084-83.866-186.95-186.95-186.95S38.48,122.346,38.48,225.43s83.865,186.95,186.95,186.95A186.2,186.2,0,0,0,350.3,364.439L456.449,470.591a10,10,0,0,0,14.142-14.143ZM58.48,225.43c0-92.056,74.893-166.95,166.95-166.95s166.95,74.894,166.95,166.95S317.487,392.38,225.43,392.38,58.48,317.486,58.48,225.43Z"></path>
      <path d="M345,213.39A28.109,28.109,0,0,0,316.95,185h-1.763a28.4,28.4,0,0,0-28.4-27H267.77a9.654,9.654,0,0,0-9.77,9.82V197H178V167.82a9.629,9.629,0,0,0-9.74-9.82H149.24a28.4,28.4,0,0,0-28.4,27H119.08A28.131,28.131,0,0,0,91,213.39V230.1c0,15.676,12.4,28.9,28.08,28.9H121v1.26c0,15.671,12.564,28.74,28.24,28.74h19.02c5.523,0,9.74-4.8,9.74-10.32V250h80v28.69c0,5.523,4.247,10.31,9.77,10.31h19.02c15.676,0,28.21-13.063,28.21-28.74V259h1.95c15.671,0,28.05-13.224,28.05-28.9ZM119.08,239c-4.648,0-8.08-4.252-8.08-8.9V213.39a8.113,8.113,0,0,1,8.08-8.39H121v34ZM158,269h-8.76c-4.648,0-8.24-4.1-8.24-8.74V186.25a8.127,8.127,0,0,1,8.24-8.25H158Zm20-39V217h80v13Zm117,30.26c0,4.648-3.562,8.74-8.21,8.74H278V178h8.79a8.1,8.1,0,0,1,8.21,8.25Zm30-30.16c0,4.648-3.407,8.9-8.05,8.9H315V205h1.95a8.092,8.092,0,0,1,8.05,8.39Z"></path>
    </g>
  </g>
</svg>
