<svg xmlns="http://www.w3.org/2000/svg" width="64pt" height="64pt" style="isolation:isolate" viewBox="0 0 64 64"><defs><clipPath id="a"><path d="M0 0h64v64H0z"/></clipPath></defs><g clip-path="url(#a)"><path fill-rule="evenodd" d="M36.482 61.617c-2.419.467-6.075.52-8.568.088-.614-.106-1.252-.677-1.426-1.275l-1.617-5.564c-.174-.598-.752-1.336-1.291-1.647l-5.859-3.382c-.539-.311-1.465-.433-2.066-.272l-5.519 1.479c-.601.161-1.415-.095-1.816-.57-1.542-1.826-3.294-4.868-4.097-7.049-.215-.584-.04-1.422.39-1.872l4.15-4.327c.43-.449.78-1.319.78-1.942v-6.765c0-.622-.357-1.485-.797-1.925l-4.137-4.136c-.44-.44-.622-1.271-.407-1.855.192-.521.916-2.073 1.786-3.579.889-1.539 1.894-2.97 2.274-3.423.399-.477 1.214-.744 1.819-.595l5.904 1.45c.604.148 1.533.016 2.072-.295l5.858-3.383c.539-.311 1.108-1.052 1.269-1.653l1.492-5.569c.161-.601.79-1.173 1.404-1.277 2.255-.38 5.728-.377 8.043.039.612.11 1.24.687 1.401 1.288l1.479 5.519c.161.601.73 1.342 1.268 1.653l5.859 3.383c.539.311 1.465.433 2.066.272l5.519-1.479c.601-.161 1.415.094 1.816.569 1.608 1.904 3.396 5.047 4.211 7.329.209.587.022 1.42-.418 1.86l-3.883 3.882c-.44.44-.797 1.303-.797 1.925v6.765c0 .623.357 1.485.797 1.925l3.941 3.941c.44.44.629 1.274.422 1.861-.229.65-1 2.332-1.941 3.963-.889 1.539-1.894 2.97-2.274 3.424-.4.476-1.213.733-1.814.572l-5.243-1.405c-.602-.161-1.527-.039-2.066.272l-5.859 3.382c-.539.311-1.107 1.052-1.268 1.653l-1.458 5.442c-.161.601-.788 1.185-1.399 1.303ZM18.466 31.999c0-7.468 6.062-13.531 13.53-13.531 7.467 0 13.53 6.063 13.53 13.531 0 7.467-6.063 13.53-13.53 13.53-7.468 0-13.53-6.063-13.53-13.53Z"/></g></svg>